<svg xmlns="http://www.w3.org/2000/svg" xmlns:xlink="http://www.w3.org/1999/xlink" width="14255" height="4096" viewBox="0 0 14255 4096"><defs><linearGradient id="a" x1="0%" x2="100%" y1="20.651%" y2="20.651%"><stop offset="0%" stop-color="#EB4F36"/><stop offset="13.231%" stop-color="#F6A532"/><stop offset="26.702%" stop-color="#EF4F5C"/><stop offset="38.776%" stop-color="#FB52FD"/><stop offset="50.075%" stop-color="#7065FF"/><stop offset="63.751%" stop-color="#4A72FE"/><stop offset="75.805%" stop-color="#2DD7E8"/><stop offset="87.031%" stop-color="#4EFBB3"/><stop offset="100%" stop-color="#F14F8A"/></linearGradient><linearGradient id="c" x1="100%" x2="0%" y1="48.828%" y2="50%"><stop offset="0%" stop-color="#EB4F36"/><stop offset="13.231%" stop-color="#F6A532"/><stop offset="26.702%" stop-color="#EF4F5C"/><stop offset="38.776%" stop-color="#FB52FD"/><stop offset="50.075%" stop-color="#7065FF"/><stop offset="63.751%" stop-color="#4A72FE"/><stop offset="75.805%" stop-color="#2DD7E8"/><stop offset="87.031%" stop-color="#4EFBB3"/><stop offset="100%" stop-color="#F14F8A"/></linearGradient><linearGradient id="d" x1="100%" x2="0%" y1="20.651%" y2="20.651%"><stop offset="0%" stop-color="#EB4F36"/><stop offset="13.231%" stop-color="#F6A532"/><stop offset="26.702%" stop-color="#EF4F5C"/><stop offset="38.776%" stop-color="#FB52FD"/><stop offset="50.075%" stop-color="#7065FF"/><stop offset="63.751%" stop-color="#4A72FE"/><stop offset="75.805%" stop-color="#2DD7E8"/><stop offset="87.031%" stop-color="#4EFBB3"/><stop offset="100%" stop-color="#F14F8A"/></linearGradient><path id="b" d="M12833.6,2673.8 L13187.8,2319.6 C13264.8,2242.6 13313.2,2156.8 13313.2,2071 C13313.2,1910.4 13141.6,1829 12917.2,1829 L12677.4,1829 C12483.8,1829 12369.4,1943.4 12369.4,2137 L12369.4,2491.2 C12369.4,2627.6 12431,2706.8 12446.4,2722.2 L12789.6,3065.4 L13007.4,2847.6 L12833.6,2673.8 Z M12675.2,2436.2 L12675.2,2247 C12675.2,2174.4 12712.6,2134.8 12789.6,2134.8 L12846.8,2134.8 C12921.6,2134.8 12906.2,2205.2 12895.2,2216.2 L12675.2,2436.2 Z M13480.4,2907 L13788.4,2907 L13788.4,2251.4 C13788.4,2174.4 13828,2137 13905,2137 L14109.6,2137 L14109.6,1829 L13480.4,1829 L13480.4,2907 Z M4537.4,1789.4 L4537.4,2907 L5204,2907 C5391,2907 5512,2790.4 5512,2599 L5512,1675 C5512,1481.4 5397.6,1367 5204,1367 L4343.8,1367 L4343.8,1675 L4420.8,1675 C4497.8,1675 4537.4,1716.8 4537.4,1789.4 Z M5089.6,2599 L4845.4,2599 L4845.4,1675 L5089.6,1675 C5166.6,1675 5204,1712.4 5204,1789.4 L5204,2482.4 C5204,2559.4 5166.6,2599 5089.6,2599 Z M6216,2673.8 L6570.2,2319.6 C6647.2,2242.6 6695.6,2156.8 6695.6,2071 C6695.6,1910.4 6524,1829 6299.6,1829 L6059.8,1829 C5866.2,1829 5751.8,1943.4 5751.8,2137 L5751.8,2491.2 C5751.8,2627.6 5813.4,2706.8 5828.8,2722.2 L6172,3065.4 L6389.8,2847.6 L6216,2673.8 Z M6057.6,2436.2 L6057.6,2247 C6057.6,2174.4 6095,2134.8 6172,2134.8 L6229.2,2134.8 C6304,2134.8 6288.6,2205.2 6277.6,2216.2 L6057.6,2436.2 Z M7500.8,2137 L7500.8,2464.8 L7417.2,2548.4 C7364.4,2601.2 7307.2,2601.2 7254.4,2548.4 L7170.8,2464.8 L7170.8,1829 L6862.8,1829 L6862.8,2588 L7118,2843.2 C7254.4,2979.6 7417.2,2979.6 7553.6,2843.2 L7808.8,2588 L7808.8,2251.4 C7808.8,2174.4 7846.2,2137 7923.2,2137 L7949.6,2137 L7949.6,1829 L7808.8,1829 C7615.2,1829 7500.8,1943.4 7500.8,2137 Z M8594.2,2673.8 L8948.4,2319.6 C9025.4,2242.6 9073.8,2156.8 9073.8,2071 C9073.8,1910.4 8902.2,1829 8677.8,1829 L8438,1829 C8244.4,1829 8130,1943.4 8130,2137 L8130,2491.2 C8130,2627.6 8191.6,2706.8 8207,2722.2 L8550.2,3065.4 L8768,2847.6 L8594.2,2673.8 Z M8435.8,2436.2 L8435.8,2247 C8435.8,2174.4 8473.2,2134.8 8550.2,2134.8 L8607.4,2134.8 C8682.2,2134.8 8666.8,2205.2 8655.8,2216.2 L8435.8,2436.2 Z M9241,1367 L9241,2599 C9241,2790.4 9357.6,2907 9549,2907 L9692,2907 L9692,2599 L9665.6,2599 C9588.6,2599 9549,2559.4 9549,2482.4 L9549,1367 L9241,1367 Z M10184.8,1877.4 L9901,2163.4 C9788.8,2275.6 9788.8,2460.4 9901,2572.6 L10184.8,2858.6 C10297,2973 10484,2970.8 10596.2,2858.6 L10882.2,2572.6 C10994.4,2460.4 10994.4,2275.6 10882.2,2163.4 L10596.2,1877.4 C10484,1765.2 10297,1763 10184.8,1877.4 Z M10574.2,2286.6 C10627,2339.4 10627,2396.6 10574.2,2449.4 L10473,2550.6 C10420.2,2603.4 10363,2605.6 10308,2550.6 L10209,2449.4 C10154,2394.4 10154,2341.6 10209,2286.6 L10308,2185.4 C10363,2130.4 10420.2,2132.6 10473,2185.4 L10574.2,2286.6 Z M11229.8,2251.4 L11229.8,3318.4 L11537.8,3318.4 L11537.8,2907 L11821.6,2907 C12008.6,2907 12129.6,2790.4 12129.6,2599 L12129.6,2137 C12129.6,1943.4 12013,1829 11821.6,1829 L11089,1829 L11089,2137 L11115.4,2137 C11192.4,2137 11229.8,2178.8 11229.8,2251.4 Z M11705,2599 L11537.8,2599 L11537.8,2137 L11705,2137 C11782,2137 11821.6,2174.4 11821.6,2251.4 L11821.6,2482.4 C11821.6,2559.4 11782,2599 11705,2599 Z"/></defs><g fill="none" fill-rule="evenodd"><path fill="#000" stroke="url(#a)" stroke-width="339.235" d="M1600.42391,580.925951 L2823.07256,2617.53653 L1666.10226,3273.51085 C1626.19502,3296.1373 1577.33306,3296.126 1537.43629,3273.4811 L1537.43629,3273.4811 L381.674859,2617.48563 L1600.42391,580.925951 Z"/><g fill-rule="nonzero"><use xlink:href="#b" fill="#000"/><use xlink:href="#b" fill="url(#c)"/></g><path fill="url(#d)" d="M147,2679.32187 L1453.766,3420.55139 C1545.52766,3472.60084 1657.88427,3472.62739 1749.67051,3420.62131 L3058,2679.32187 L3058,2679.32187 L3053.26656,3022.0608 L1749.52956,3762.08809 C1657.8246,3814.14166 1545.52413,3814.22663 1453.7405,3762.31189 L145,3022.0608 L145,3022.0608 L147,2679.32187 Z"/><path fill="#000" fill-rule="nonzero" d="M2456.61194,3602.38806 C2437.53731,3583.31343 2428,3559.85075 2428,3532 C2428,3503.07463 2438.29851,3479.02985 2458.89552,3459.86567 C2478.23881,3441.95522 2500.9403,3433 2527,3433 C2554.31343,3433 2577.64179,3442.67164 2596.98507,3462.01493 C2616.32836,3481.35821 2626,3504.68657 2626,3532 C2626,3560.1194 2616.10448,3583.80597 2596.31343,3603.0597 C2577.0597,3621.68657 2553.95522,3631 2527,3631 C2499.14925,3631 2475.68657,3621.46269 2456.61194,3602.38806 Z M2468.59211,3474.78367 C2452.86404,3490.94694 2445,3510.11837 2445,3532.29796 C2445,3555.28571 2452.99808,3574.81633 2468.99424,3590.8898 C2484.90104,3606.96327 2504.11431,3615 2526.63405,3615 C2549.06442,3615 2568.233,3606.91837 2584.1398,3590.7551 C2600.0466,3574.50204 2608,3555.01633 2608,3532.29796 C2608,3510.20816 2600.09128,3491.03673 2584.27385,3474.78367 C2568.27769,3458.26122 2549.06442,3450 2526.63405,3450 C2503.93558,3450 2484.58827,3458.26122 2468.59211,3474.78367 Z M2488.27979,3491.15464 C2497.70984,3479.71821 2510.68739,3474 2527.21244,3474 C2537.72021,3474 2546.83592,3476.14433 2554.55959,3480.43299 C2567.13299,3487.40206 2574.94646,3499.59794 2578,3517.02062 L2552.67358,3516.61856 C2551.1468,3508.57732 2547.91364,3503.17182 2542.97409,3500.40206 C2538.84283,3497.811 2534.30743,3496.51546 2529.36788,3496.51546 C2521.91364,3496.51546 2515.80656,3499.5756 2511.04663,3505.69588 C2506.2867,3511.81615 2503.90674,3521.04124 2503.90674,3533.37113 C2503.90674,3545.61168 2506.53368,3554.50172 2511.78756,3560.04124 C2517.04145,3565.58076 2523.3506,3568.35052 2530.71503,3568.35052 C2537.45078,3568.35052 2542.5475,3566.5189 2546.00518,3562.85567 C2549.46287,3559.19244 2551.68566,3554.59107 2552.67358,3549.05155 L2577.32642,3549.05155 C2574.63212,3564.59794 2568.5475,3575.47595 2559.07254,3581.68557 C2549.59758,3587.89519 2539.78584,3591 2529.63731,3591 C2514.54922,3591 2501.50432,3585.63918 2490.50259,3574.91753 C2479.50086,3564.19588 2474,3550.12371 2474,3532.70103 C2474,3516.43986 2478.75993,3502.59107 2488.27979,3491.15464 Z"/></g></svg>